<mxfile host="app.diagrams.net" modified="2023-10-27T13:02:52.820Z" agent="Mozilla/5.0 (Windows NT 10.0; Win64; x64) AppleWebKit/537.36 (KHTML, like Gecko) Chrome/118.0.0.0 Safari/537.36" etag="a-Wrouskbu0ocCXuO3nX" version="22.0.8" type="device">
  <diagram id="R2lEEEUBdFMjLlhIrx00" name="Page-1">
    <mxGraphModel dx="875" dy="474" grid="1" gridSize="10" guides="1" tooltips="1" connect="1" arrows="1" fold="1" page="1" pageScale="1" pageWidth="850" pageHeight="1100" math="0" shadow="0" extFonts="Permanent Marker^https://fonts.googleapis.com/css?family=Permanent+Marker">
      <root>
        <mxCell id="0" />
        <mxCell id="1" parent="0" />
        <mxCell id="C-vyLk0tnHw3VtMMgP7b-12" value="" style="edgeStyle=entityRelationEdgeStyle;endArrow=ERzeroToMany;startArrow=ERone;endFill=1;startFill=0;" parent="1" target="C-vyLk0tnHw3VtMMgP7b-17" edge="1">
          <mxGeometry width="100" height="100" relative="1" as="geometry">
            <mxPoint x="700" y="165" as="sourcePoint" />
            <mxPoint x="460" y="205" as="targetPoint" />
          </mxGeometry>
        </mxCell>
        <mxCell id="7XotRo-l19iRrN-_ZF-j-1" value="Usuario" style="rounded=0;whiteSpace=wrap;html=1;deletable=0;" vertex="1" parent="1">
          <mxGeometry x="360" y="440" width="120" height="80" as="geometry" />
        </mxCell>
        <mxCell id="7XotRo-l19iRrN-_ZF-j-2" value="Administrador" style="rounded=0;whiteSpace=wrap;html=1;deletable=0;" vertex="1" parent="1">
          <mxGeometry x="440" y="560" width="80" height="40" as="geometry" />
        </mxCell>
        <mxCell id="7XotRo-l19iRrN-_ZF-j-3" value="Base" style="rounded=0;whiteSpace=wrap;html=1;deletable=0;" vertex="1" parent="1">
          <mxGeometry x="320" y="560" width="80" height="40" as="geometry" />
        </mxCell>
        <mxCell id="7XotRo-l19iRrN-_ZF-j-4" value="" style="endArrow=none;html=1;rounded=0;entryX=0.5;entryY=1;entryDx=0;entryDy=0;deletable=0;" edge="1" parent="1" source="7XotRo-l19iRrN-_ZF-j-5" target="7XotRo-l19iRrN-_ZF-j-1">
          <mxGeometry width="50" height="50" relative="1" as="geometry">
            <mxPoint x="420" y="540" as="sourcePoint" />
            <mxPoint x="770" y="570" as="targetPoint" />
          </mxGeometry>
        </mxCell>
        <mxCell id="7XotRo-l19iRrN-_ZF-j-6" value="" style="endArrow=none;html=1;rounded=0;entryX=0.5;entryY=1;entryDx=0;entryDy=0;deletable=0;" edge="1" parent="1" target="7XotRo-l19iRrN-_ZF-j-5">
          <mxGeometry width="50" height="50" relative="1" as="geometry">
            <mxPoint x="420" y="540" as="sourcePoint" />
            <mxPoint x="420" y="520" as="targetPoint" />
          </mxGeometry>
        </mxCell>
        <mxCell id="7XotRo-l19iRrN-_ZF-j-5" value="" style="ellipse;whiteSpace=wrap;html=1;aspect=fixed;fillColor=#FFFFFF;strokeColor=default;deletable=0;" vertex="1" parent="1">
          <mxGeometry x="415" y="530" width="10" height="10" as="geometry" />
        </mxCell>
        <mxCell id="7XotRo-l19iRrN-_ZF-j-7" value="" style="endArrow=none;html=1;rounded=0;entryX=0;entryY=1;entryDx=0;entryDy=0;exitX=0.5;exitY=0;exitDx=0;exitDy=0;deletable=0;" edge="1" parent="1" source="7XotRo-l19iRrN-_ZF-j-3" target="7XotRo-l19iRrN-_ZF-j-5">
          <mxGeometry width="50" height="50" relative="1" as="geometry">
            <mxPoint x="450" y="580" as="sourcePoint" />
            <mxPoint x="500" y="530" as="targetPoint" />
          </mxGeometry>
        </mxCell>
        <mxCell id="7XotRo-l19iRrN-_ZF-j-8" value="" style="endArrow=none;html=1;rounded=0;entryX=1;entryY=1;entryDx=0;entryDy=0;exitX=0.5;exitY=0;exitDx=0;exitDy=0;deletable=0;" edge="1" parent="1" source="7XotRo-l19iRrN-_ZF-j-2" target="7XotRo-l19iRrN-_ZF-j-5">
          <mxGeometry width="50" height="50" relative="1" as="geometry">
            <mxPoint x="370" y="570" as="sourcePoint" />
            <mxPoint x="426" y="549" as="targetPoint" />
          </mxGeometry>
        </mxCell>
        <mxCell id="7XotRo-l19iRrN-_ZF-j-9" value="" style="endArrow=none;dashed=1;html=1;rounded=0;deletable=0;" edge="1" parent="1">
          <mxGeometry width="50" height="50" relative="1" as="geometry">
            <mxPoint x="390" y="550" as="sourcePoint" />
            <mxPoint x="450" y="550" as="targetPoint" />
            <Array as="points">
              <mxPoint x="420" y="560" />
            </Array>
          </mxGeometry>
        </mxCell>
        <mxCell id="7XotRo-l19iRrN-_ZF-j-12" value="Mensaje" style="rounded=0;whiteSpace=wrap;html=1;deletable=0;" vertex="1" parent="1">
          <mxGeometry x="360" y="200" width="120" height="80" as="geometry" />
        </mxCell>
        <mxCell id="7XotRo-l19iRrN-_ZF-j-13" value="&lt;font style=&quot;font-size: 10px;&quot;&gt;Enviar&lt;/font&gt;" style="rhombus;whiteSpace=wrap;html=1;deletable=0;" vertex="1" parent="1">
          <mxGeometry x="440" y="320" width="40" height="40" as="geometry" />
        </mxCell>
        <mxCell id="7XotRo-l19iRrN-_ZF-j-14" value="&lt;font style=&quot;font-size: 9px;&quot;&gt;Recibir&lt;/font&gt;" style="rhombus;whiteSpace=wrap;html=1;deletable=0;" vertex="1" parent="1">
          <mxGeometry x="360" y="360" width="40" height="40" as="geometry" />
        </mxCell>
        <mxCell id="7XotRo-l19iRrN-_ZF-j-15" value="" style="endArrow=none;html=1;rounded=0;entryX=0.5;entryY=0;entryDx=0;entryDy=0;exitX=0.167;exitY=1.008;exitDx=0;exitDy=0;exitPerimeter=0;deletable=0;" edge="1" parent="1" source="7XotRo-l19iRrN-_ZF-j-12" target="7XotRo-l19iRrN-_ZF-j-14">
          <mxGeometry width="50" height="50" relative="1" as="geometry">
            <mxPoint x="410" y="390" as="sourcePoint" />
            <mxPoint x="460" y="340" as="targetPoint" />
          </mxGeometry>
        </mxCell>
        <mxCell id="7XotRo-l19iRrN-_ZF-j-16" value="" style="endArrow=none;html=1;rounded=0;entryX=0.5;entryY=0;entryDx=0;entryDy=0;deletable=0;" edge="1" parent="1">
          <mxGeometry width="50" height="50" relative="1" as="geometry">
            <mxPoint x="380" y="400" as="sourcePoint" />
            <mxPoint x="379.86" y="439" as="targetPoint" />
          </mxGeometry>
        </mxCell>
        <mxCell id="7XotRo-l19iRrN-_ZF-j-17" value="" style="endArrow=none;html=1;rounded=0;entryX=0.5;entryY=0;entryDx=0;entryDy=0;exitX=0.167;exitY=1.008;exitDx=0;exitDy=0;exitPerimeter=0;deletable=0;" edge="1" parent="1">
          <mxGeometry width="50" height="50" relative="1" as="geometry">
            <mxPoint x="459.86" y="360" as="sourcePoint" />
            <mxPoint x="459.86" y="439" as="targetPoint" />
          </mxGeometry>
        </mxCell>
        <mxCell id="7XotRo-l19iRrN-_ZF-j-18" value="" style="endArrow=none;html=1;rounded=0;entryX=0.5;entryY=0;entryDx=0;entryDy=0;deletable=0;" edge="1" parent="1" source="7XotRo-l19iRrN-_ZF-j-22">
          <mxGeometry width="50" height="50" relative="1" as="geometry">
            <mxPoint x="460" y="281" as="sourcePoint" />
            <mxPoint x="459.86" y="320" as="targetPoint" />
          </mxGeometry>
        </mxCell>
        <mxCell id="7XotRo-l19iRrN-_ZF-j-19" value="" style="triangle;whiteSpace=wrap;html=1;fillColor=#000000;rotation=-90;deletable=0;" vertex="1" parent="1">
          <mxGeometry x="375" y="280" width="10" height="10" as="geometry" />
        </mxCell>
        <mxCell id="7XotRo-l19iRrN-_ZF-j-23" value="" style="endArrow=none;html=1;rounded=0;entryX=0.5;entryY=0;entryDx=0;entryDy=0;deletable=0;" edge="1" parent="1" target="7XotRo-l19iRrN-_ZF-j-22">
          <mxGeometry width="50" height="50" relative="1" as="geometry">
            <mxPoint x="460" y="281" as="sourcePoint" />
            <mxPoint x="459.86" y="320" as="targetPoint" />
          </mxGeometry>
        </mxCell>
        <mxCell id="7XotRo-l19iRrN-_ZF-j-22" value="" style="triangle;whiteSpace=wrap;html=1;fillColor=#000000;rotation=-90;deletable=0;" vertex="1" parent="1">
          <mxGeometry x="455" y="280" width="10" height="10" as="geometry" />
        </mxCell>
        <mxCell id="7XotRo-l19iRrN-_ZF-j-24" value="" style="triangle;whiteSpace=wrap;html=1;fillColor=#000000;rotation=90;deletable=0;" vertex="1" parent="1">
          <mxGeometry x="375" y="430" width="10" height="10" as="geometry" />
        </mxCell>
        <mxCell id="7XotRo-l19iRrN-_ZF-j-26" value="" style="triangle;whiteSpace=wrap;html=1;fillColor=#000000;rotation=90;deletable=0;" vertex="1" parent="1">
          <mxGeometry x="455" y="430" width="10" height="10" as="geometry" />
        </mxCell>
        <mxCell id="7XotRo-l19iRrN-_ZF-j-29" value="N:N" style="text;html=1;strokeColor=none;fillColor=none;align=center;verticalAlign=middle;whiteSpace=wrap;rounded=0;deletable=0;" vertex="1" parent="1">
          <mxGeometry x="465" y="325" width="60" height="30" as="geometry" />
        </mxCell>
        <mxCell id="7XotRo-l19iRrN-_ZF-j-30" value="N:N" style="text;html=1;strokeColor=none;fillColor=none;align=center;verticalAlign=middle;whiteSpace=wrap;rounded=0;deletable=0;" vertex="1" parent="1">
          <mxGeometry x="315" y="365" width="60" height="30" as="geometry" />
        </mxCell>
        <mxCell id="7XotRo-l19iRrN-_ZF-j-73" value="Grupo" style="rounded=0;whiteSpace=wrap;html=1;" vertex="1" parent="1">
          <mxGeometry x="80" y="440" width="120" height="80" as="geometry" />
        </mxCell>
        <mxCell id="7XotRo-l19iRrN-_ZF-j-85" value="N:1" style="text;html=1;strokeColor=none;fillColor=none;align=center;verticalAlign=middle;whiteSpace=wrap;rounded=0;" vertex="1" parent="1">
          <mxGeometry x="230" y="430" width="60" height="30" as="geometry" />
        </mxCell>
        <mxCell id="7XotRo-l19iRrN-_ZF-j-87" value="" style="group;rotation=-90;" vertex="1" connectable="0" parent="1">
          <mxGeometry x="260" y="400" width="40" height="160" as="geometry" />
        </mxCell>
        <mxCell id="7XotRo-l19iRrN-_ZF-j-74" value="&lt;font style=&quot;font-size: 10px;&quot;&gt;Crear&lt;/font&gt;" style="rhombus;whiteSpace=wrap;html=1;rotation=0;" vertex="1" parent="7XotRo-l19iRrN-_ZF-j-87">
          <mxGeometry x="-20" y="60" width="40" height="40" as="geometry" />
        </mxCell>
        <mxCell id="7XotRo-l19iRrN-_ZF-j-78" value="" style="endArrow=none;html=1;rounded=0;entryX=0.5;entryY=0;entryDx=0;entryDy=0;exitX=0.167;exitY=1.008;exitDx=0;exitDy=0;exitPerimeter=0;" edge="1" parent="7XotRo-l19iRrN-_ZF-j-87">
          <mxGeometry width="50" height="50" relative="1" as="geometry">
            <mxPoint x="20" y="80" as="sourcePoint" />
            <mxPoint x="99" y="80" as="targetPoint" />
          </mxGeometry>
        </mxCell>
        <mxCell id="7XotRo-l19iRrN-_ZF-j-79" value="" style="endArrow=none;html=1;rounded=0;entryX=0.5;entryY=0;entryDx=0;entryDy=0;" edge="1" parent="7XotRo-l19iRrN-_ZF-j-87" source="7XotRo-l19iRrN-_ZF-j-82">
          <mxGeometry width="50" height="50" relative="1" as="geometry">
            <mxPoint x="-59" y="80" as="sourcePoint" />
            <mxPoint x="-20" y="80" as="targetPoint" />
          </mxGeometry>
        </mxCell>
        <mxCell id="7XotRo-l19iRrN-_ZF-j-81" value="" style="endArrow=none;html=1;rounded=0;entryX=0.5;entryY=0;entryDx=0;entryDy=0;" edge="1" parent="7XotRo-l19iRrN-_ZF-j-87" target="7XotRo-l19iRrN-_ZF-j-82">
          <mxGeometry width="50" height="50" relative="1" as="geometry">
            <mxPoint x="-59" y="80" as="sourcePoint" />
            <mxPoint x="-20" y="80" as="targetPoint" />
          </mxGeometry>
        </mxCell>
        <mxCell id="7XotRo-l19iRrN-_ZF-j-82" value="" style="triangle;whiteSpace=wrap;html=1;fillColor=#000000;rotation=-180;" vertex="1" parent="7XotRo-l19iRrN-_ZF-j-87">
          <mxGeometry x="-60" y="75" width="10" height="10" as="geometry" />
        </mxCell>
        <mxCell id="7XotRo-l19iRrN-_ZF-j-88" value="Hilo" style="rounded=0;whiteSpace=wrap;html=1;" vertex="1" parent="1">
          <mxGeometry x="640" y="440" width="120" height="80" as="geometry" />
        </mxCell>
        <mxCell id="7XotRo-l19iRrN-_ZF-j-89" value="N:1" style="text;html=1;strokeColor=none;fillColor=none;align=center;verticalAlign=middle;whiteSpace=wrap;rounded=0;" vertex="1" parent="1">
          <mxGeometry x="550" y="430" width="60" height="30" as="geometry" />
        </mxCell>
        <mxCell id="7XotRo-l19iRrN-_ZF-j-90" value="" style="group;rotation=90;" vertex="1" connectable="0" parent="1">
          <mxGeometry x="540" y="400" width="40" height="160" as="geometry" />
        </mxCell>
        <mxCell id="7XotRo-l19iRrN-_ZF-j-91" value="&lt;font style=&quot;font-size: 10px;&quot;&gt;Postear&lt;/font&gt;" style="rhombus;whiteSpace=wrap;html=1;rotation=0;" vertex="1" parent="7XotRo-l19iRrN-_ZF-j-90">
          <mxGeometry x="20" y="60" width="40" height="40" as="geometry" />
        </mxCell>
        <mxCell id="7XotRo-l19iRrN-_ZF-j-92" value="" style="endArrow=none;html=1;rounded=0;entryX=0.5;entryY=0;entryDx=0;entryDy=0;exitX=0.167;exitY=1.008;exitDx=0;exitDy=0;exitPerimeter=0;" edge="1" parent="7XotRo-l19iRrN-_ZF-j-90">
          <mxGeometry width="50" height="50" relative="1" as="geometry">
            <mxPoint x="20" y="80" as="sourcePoint" />
            <mxPoint x="-59" y="80" as="targetPoint" />
          </mxGeometry>
        </mxCell>
        <mxCell id="7XotRo-l19iRrN-_ZF-j-93" value="" style="endArrow=none;html=1;rounded=0;entryX=0.5;entryY=0;entryDx=0;entryDy=0;" edge="1" parent="7XotRo-l19iRrN-_ZF-j-90" source="7XotRo-l19iRrN-_ZF-j-95">
          <mxGeometry width="50" height="50" relative="1" as="geometry">
            <mxPoint x="99" y="80" as="sourcePoint" />
            <mxPoint x="60" y="80" as="targetPoint" />
          </mxGeometry>
        </mxCell>
        <mxCell id="7XotRo-l19iRrN-_ZF-j-94" value="" style="endArrow=none;html=1;rounded=0;entryX=0.5;entryY=0;entryDx=0;entryDy=0;" edge="1" parent="7XotRo-l19iRrN-_ZF-j-90" target="7XotRo-l19iRrN-_ZF-j-95">
          <mxGeometry width="50" height="50" relative="1" as="geometry">
            <mxPoint x="99" y="80" as="sourcePoint" />
            <mxPoint x="60" y="80" as="targetPoint" />
          </mxGeometry>
        </mxCell>
        <mxCell id="7XotRo-l19iRrN-_ZF-j-95" value="" style="triangle;whiteSpace=wrap;html=1;fillColor=#000000;rotation=0;" vertex="1" parent="7XotRo-l19iRrN-_ZF-j-90">
          <mxGeometry x="90" y="75" width="10" height="10" as="geometry" />
        </mxCell>
        <mxCell id="7XotRo-l19iRrN-_ZF-j-96" value="" style="endArrow=none;html=1;rounded=0;exitX=1;exitY=0.5;exitDx=0;exitDy=0;" edge="1" parent="1" source="7XotRo-l19iRrN-_ZF-j-2" target="7XotRo-l19iRrN-_ZF-j-97">
          <mxGeometry width="50" height="50" relative="1" as="geometry">
            <mxPoint x="540" y="530" as="sourcePoint" />
            <mxPoint x="680" y="580" as="targetPoint" />
          </mxGeometry>
        </mxCell>
        <mxCell id="7XotRo-l19iRrN-_ZF-j-97" value="&lt;font style=&quot;font-size: 11px;&quot;&gt;Crear&lt;/font&gt;" style="rhombus;whiteSpace=wrap;html=1;" vertex="1" parent="1">
          <mxGeometry x="680" y="560" width="40" height="40" as="geometry" />
        </mxCell>
        <mxCell id="7XotRo-l19iRrN-_ZF-j-98" value="" style="endArrow=none;html=1;rounded=0;entryX=0.5;entryY=1;entryDx=0;entryDy=0;exitX=0.5;exitY=0;exitDx=0;exitDy=0;" edge="1" parent="1" source="7XotRo-l19iRrN-_ZF-j-97" target="7XotRo-l19iRrN-_ZF-j-88">
          <mxGeometry width="50" height="50" relative="1" as="geometry">
            <mxPoint x="540" y="530" as="sourcePoint" />
            <mxPoint x="590" y="480" as="targetPoint" />
          </mxGeometry>
        </mxCell>
        <mxCell id="7XotRo-l19iRrN-_ZF-j-100" value="" style="triangle;whiteSpace=wrap;html=1;fillColor=#000000;rotation=-90;deletable=0;" vertex="1" parent="1">
          <mxGeometry x="695" y="520" width="10" height="10" as="geometry" />
        </mxCell>
        <mxCell id="7XotRo-l19iRrN-_ZF-j-102" value="1:N" style="text;html=1;strokeColor=none;fillColor=none;align=center;verticalAlign=middle;whiteSpace=wrap;rounded=0;" vertex="1" parent="1">
          <mxGeometry x="670" y="600" width="60" height="30" as="geometry" />
        </mxCell>
        <mxCell id="7XotRo-l19iRrN-_ZF-j-103" value="" style="rounded=0;whiteSpace=wrap;html=1;fillColor=none;connectable=0;allowArrows=0;expand=0;editable=0;movable=0;resizable=0;rotatable=0;deletable=0;locked=0;cloneable=0;pointerEvents=0;" vertex="1" parent="1">
          <mxGeometry y="640" width="520" height="320" as="geometry" />
        </mxCell>
        <mxCell id="7XotRo-l19iRrN-_ZF-j-104" value="Usuario" style="rounded=0;whiteSpace=wrap;html=1;deletable=0;" vertex="1" parent="1">
          <mxGeometry x="200" y="760" width="120" height="80" as="geometry" />
        </mxCell>
        <mxCell id="7XotRo-l19iRrN-_ZF-j-107" value="" style="endArrow=none;html=1;rounded=0;exitX=0;exitY=0;exitDx=0;exitDy=0;" edge="1" parent="1" source="7XotRo-l19iRrN-_ZF-j-104">
          <mxGeometry width="50" height="50" relative="1" as="geometry">
            <mxPoint x="370" y="710" as="sourcePoint" />
            <mxPoint x="200" y="720" as="targetPoint" />
          </mxGeometry>
        </mxCell>
        <mxCell id="7XotRo-l19iRrN-_ZF-j-109" value="" style="endArrow=none;html=1;rounded=0;exitX=0;exitY=0;exitDx=0;exitDy=0;" edge="1" parent="1">
          <mxGeometry width="50" height="50" relative="1" as="geometry">
            <mxPoint x="320" y="760" as="sourcePoint" />
            <mxPoint x="320" y="720" as="targetPoint" />
          </mxGeometry>
        </mxCell>
        <mxCell id="7XotRo-l19iRrN-_ZF-j-110" value="" style="endArrow=none;html=1;rounded=0;exitX=0;exitY=0;exitDx=0;exitDy=0;" edge="1" parent="1">
          <mxGeometry width="50" height="50" relative="1" as="geometry">
            <mxPoint x="200" y="880" as="sourcePoint" />
            <mxPoint x="200" y="840" as="targetPoint" />
          </mxGeometry>
        </mxCell>
        <mxCell id="7XotRo-l19iRrN-_ZF-j-111" value="" style="endArrow=none;html=1;rounded=0;exitX=0;exitY=0;exitDx=0;exitDy=0;" edge="1" parent="1" source="7XotRo-l19iRrN-_ZF-j-118">
          <mxGeometry width="50" height="50" relative="1" as="geometry">
            <mxPoint x="320" y="880" as="sourcePoint" />
            <mxPoint x="320" y="840" as="targetPoint" />
          </mxGeometry>
        </mxCell>
        <mxCell id="7XotRo-l19iRrN-_ZF-j-112" value="" style="endArrow=none;html=1;rounded=0;" edge="1" parent="1">
          <mxGeometry width="50" height="50" relative="1" as="geometry">
            <mxPoint x="200" y="720" as="sourcePoint" />
            <mxPoint x="240" y="720" as="targetPoint" />
          </mxGeometry>
        </mxCell>
        <mxCell id="7XotRo-l19iRrN-_ZF-j-113" value="" style="endArrow=none;html=1;rounded=0;" edge="1" parent="1">
          <mxGeometry width="50" height="50" relative="1" as="geometry">
            <mxPoint x="280" y="720" as="sourcePoint" />
            <mxPoint x="320" y="720" as="targetPoint" />
          </mxGeometry>
        </mxCell>
        <mxCell id="7XotRo-l19iRrN-_ZF-j-114" value="&lt;font style=&quot;font-size: 11px;&quot;&gt;Editar&lt;/font&gt;" style="rhombus;whiteSpace=wrap;html=1;" vertex="1" parent="1">
          <mxGeometry x="240" y="700" width="40" height="40" as="geometry" />
        </mxCell>
        <mxCell id="7XotRo-l19iRrN-_ZF-j-115" value="" style="endArrow=none;html=1;rounded=0;" edge="1" parent="1">
          <mxGeometry width="50" height="50" relative="1" as="geometry">
            <mxPoint x="200" y="880" as="sourcePoint" />
            <mxPoint x="240" y="880" as="targetPoint" />
          </mxGeometry>
        </mxCell>
        <mxCell id="7XotRo-l19iRrN-_ZF-j-116" value="" style="endArrow=none;html=1;rounded=0;" edge="1" parent="1">
          <mxGeometry width="50" height="50" relative="1" as="geometry">
            <mxPoint x="280" y="880" as="sourcePoint" />
            <mxPoint x="320" y="880" as="targetPoint" />
          </mxGeometry>
        </mxCell>
        <mxCell id="7XotRo-l19iRrN-_ZF-j-117" value="&lt;font style=&quot;font-size: 9px;&quot;&gt;Puntuar&lt;/font&gt;" style="rhombus;whiteSpace=wrap;html=1;" vertex="1" parent="1">
          <mxGeometry x="240" y="860" width="40" height="40" as="geometry" />
        </mxCell>
        <mxCell id="7XotRo-l19iRrN-_ZF-j-119" value="" style="endArrow=none;html=1;rounded=0;exitX=0;exitY=0;exitDx=0;exitDy=0;" edge="1" parent="1" target="7XotRo-l19iRrN-_ZF-j-118">
          <mxGeometry width="50" height="50" relative="1" as="geometry">
            <mxPoint x="320" y="880" as="sourcePoint" />
            <mxPoint x="320" y="840" as="targetPoint" />
          </mxGeometry>
        </mxCell>
        <mxCell id="7XotRo-l19iRrN-_ZF-j-118" value="" style="triangle;whiteSpace=wrap;html=1;fillColor=#000000;rotation=-90;deletable=0;" vertex="1" parent="1">
          <mxGeometry x="315" y="840" width="10" height="10" as="geometry" />
        </mxCell>
        <mxCell id="7XotRo-l19iRrN-_ZF-j-120" value="" style="triangle;whiteSpace=wrap;html=1;fillColor=#000000;rotation=-90;deletable=0;" vertex="1" parent="1">
          <mxGeometry x="195" y="840" width="10" height="10" as="geometry" />
        </mxCell>
        <mxCell id="7XotRo-l19iRrN-_ZF-j-124" value="N:N" style="text;html=1;strokeColor=none;fillColor=none;align=center;verticalAlign=middle;whiteSpace=wrap;rounded=0;" vertex="1" parent="1">
          <mxGeometry x="230" y="900" width="60" height="30" as="geometry" />
        </mxCell>
        <mxCell id="7XotRo-l19iRrN-_ZF-j-125" value="1:1" style="text;html=1;strokeColor=none;fillColor=none;align=center;verticalAlign=middle;whiteSpace=wrap;rounded=0;" vertex="1" parent="1">
          <mxGeometry x="230" y="670" width="60" height="30" as="geometry" />
        </mxCell>
      </root>
    </mxGraphModel>
  </diagram>
</mxfile>
